<svg width="1544" height="1544" viewBox="0 0 1544 1544" fill="none" xmlns="http://www.w3.org/2000/svg">
<g style="mix-blend-mode:hard-light" opacity="0.15">
<rect opacity="0.0344828" x="1199.02" y="1412.97" width="983.965" height="1185.35" transform="rotate(-174 1199.02 1412.97)" stroke="#FBD414" stroke-width="2"/>
<rect opacity="0.0689655" x="1164.9" y="1434.46" width="983.965" height="1185.35" transform="rotate(-171 1164.9 1434.46)" stroke="#FBD414" stroke-width="2"/>
<rect opacity="0.103448" x="1129.69" y="1454.13" width="983.965" height="1185.35" transform="rotate(-168 1129.69 1454.13)" stroke="#FBD414" stroke-width="2"/>
<rect opacity="0.137931" x="1093.51" y="1471.93" width="983.965" height="1185.35" transform="rotate(-165 1093.51 1471.93)" stroke="#FBD414" stroke-width="2"/>
<rect opacity="0.172414" x="1056.44" y="1487.82" width="983.965" height="1185.35" transform="rotate(-162 1056.44 1487.82)" stroke="#FBD414" stroke-width="2"/>
<rect opacity="0.206897" x="1018.6" y="1501.74" width="983.965" height="1185.35" transform="rotate(-159 1018.6 1501.74)" stroke="#FBD414" stroke-width="2"/>
<rect opacity="0.241379" x="980.072" y="1513.66" width="983.965" height="1185.35" transform="rotate(-156 980.072 1513.66)" stroke="#FBD414" stroke-width="2"/>
<rect opacity="0.275862" x="940.979" y="1523.55" width="983.965" height="1185.35" transform="rotate(-153 940.979 1523.55)" stroke="#FBD414" stroke-width="2"/>
<rect opacity="0.310345" x="901.418" y="1531.38" width="983.965" height="1185.35" transform="rotate(-150 901.418 1531.38)" stroke="#FBD414" stroke-width="2"/>
<rect opacity="0.344828" x="861.505" y="1537.13" width="983.965" height="1185.35" transform="rotate(-147 861.505 1537.13)" stroke="#FBD414" stroke-width="2"/>
<rect opacity="0.37931" x="821.342" y="1540.78" width="983.965" height="1185.35" transform="rotate(-144 821.342 1540.78)" stroke="#FBD414" stroke-width="2"/>
<rect opacity="0.413793" x="781.046" y="1542.33" width="983.965" height="1185.35" transform="rotate(-141 781.046 1542.33)" stroke="#FBD414" stroke-width="2"/>
<rect opacity="0.448276" x="740.724" y="1541.76" width="983.965" height="1185.35" transform="rotate(-138 740.724 1541.76)" stroke="#FBD414" stroke-width="2"/>
<rect opacity="0.482759" x="700.485" y="1539.09" width="983.965" height="1185.35" transform="rotate(-135 700.485 1539.09)" stroke="#FBD414" stroke-width="2"/>
<rect opacity="0.517241" x="660.443" y="1534.31" width="983.965" height="1185.35" transform="rotate(-132 660.443 1534.31)" stroke="#FBD414" stroke-width="2"/>
<rect opacity="0.551724" x="620.708" y="1527.44" width="983.965" height="1185.35" transform="rotate(-129 620.708 1527.44)" stroke="#FBD414" stroke-width="2"/>
<rect opacity="0.586207" x="581.382" y="1518.5" width="983.965" height="1185.35" transform="rotate(-126 581.382 1518.5)" stroke="#FBD414" stroke-width="2"/>
<rect opacity="0.62069" x="542.58" y="1507.52" width="983.965" height="1185.35" transform="rotate(-123 542.58 1507.52)" stroke="#FBD414" stroke-width="2"/>
<rect opacity="0.655172" x="504.408" y="1494.52" width="983.965" height="1185.35" transform="rotate(-120 504.408 1494.52)" stroke="#FBD414" stroke-width="2"/>
<rect opacity="0.689655" x="466.965" y="1479.54" width="983.965" height="1185.35" transform="rotate(-117 466.965 1479.54)" stroke="#FBD414" stroke-width="2"/>
<rect opacity="0.724138" x="430.356" y="1462.63" width="983.965" height="1185.35" transform="rotate(-114 430.356 1462.63)" stroke="#FBD414" stroke-width="2"/>
<rect opacity="0.758621" x="394.688" y="1443.82" width="983.965" height="1185.35" transform="rotate(-111 394.688 1443.82)" stroke="#FBD414" stroke-width="2"/>
<rect opacity="0.793103" x="360.051" y="1423.17" width="983.965" height="1185.35" transform="rotate(-108 360.051 1423.17)" stroke="#FBD414" stroke-width="2"/>
<rect opacity="0.827586" x="326.543" y="1400.73" width="983.965" height="1185.35" transform="rotate(-105 326.543 1400.73)" stroke="#FBD414" stroke-width="2"/>
<rect opacity="0.862069" x="294.254" y="1376.57" width="983.965" height="1185.35" transform="rotate(-102 294.254 1376.57)" stroke="#FBD414" stroke-width="2"/>
<rect opacity="0.896552" x="263.27" y="1350.76" width="983.965" height="1185.35" transform="rotate(-99 263.27 1350.76)" stroke="#FBD414" stroke-width="2"/>
<rect opacity="0.931035" x="233.685" y="1323.36" width="983.965" height="1185.35" transform="rotate(-96 233.685 1323.36)" stroke="#FBD414" stroke-width="2"/>
<rect opacity="0.965517" x="205.569" y="1294.44" width="983.965" height="1185.35" transform="rotate(-93 205.569 1294.44)" stroke="#FBD414" stroke-width="2"/>
<rect x="179.01" y="1264.1" width="983.965" height="1185.35" transform="rotate(-90 179.01 1264.1)" stroke="#FBD414" stroke-width="2"/>
</g>
</svg>
