<svg width="2051" height="2064" viewBox="0 0 2051 2064" fill="none" xmlns="http://www.w3.org/2000/svg">
<g style="mix-blend-mode:hard-light" opacity="0.15">
<path opacity="0.0526316" d="M1059.36 1812.33C1112.31 1808.4 1227.13 1760.95 1262.88 1602.56C1307.57 1404.57 1192.79 1243.27 1204.56 1048.53C1213.25 904.795 1306.78 563.604 1509.78 463.159" stroke="#FBD414" stroke-width="3"/>
<path opacity="0.105263" d="M967.494 1790.77C1020.56 1792.4 1139.71 1757.2 1191.82 1603.42C1256.96 1411.19 1159.67 1238.77 1191.74 1046.33C1215.4 904.289 1344.08 574.744 1556.47 496.068" stroke="#FBD414" stroke-width="3"/>
<path opacity="0.157895" d="M878.77 1762.09C931.373 1769.25 1053.55 1746.7 1121.45 1599.21C1206.33 1414.84 1127.6 1233.2 1179.6 1045.16C1217.98 906.373 1380.4 592.083 1599.85 536.039" stroke="#FBD414" stroke-width="3"/>
<path opacity="0.210526" d="M793.917 1726.64C845.483 1739.27 969.352 1729.61 1052.3 1590.03C1155.98 1415.54 1096.66 1226.66 1168.04 1045.09C1220.72 911.077 1415.1 615.486 1639.21 582.688" stroke="#FBD414" stroke-width="3"/>
<path opacity="0.263158" d="M713.621 1684.89C763.586 1702.83 887.785 1706.18 984.866 1576.03C1106.22 1413.33 1066.97 1219.29 1156.93 1046.17C1223.33 918.401 1447.55 644.749 1673.86 635.556" stroke="#FBD414" stroke-width="3"/>
<path opacity="0.315789" d="M638.518 1637.33C686.333 1660.4 809.501 1676.71 919.655 1557.42C1057.35 1408.3 1038.6 1211.22 1146.17 1048.45C1225.56 928.321 1477.15 679.604 1703.18 694.117" stroke="#FBD414" stroke-width="3"/>
<path opacity="0.368421" d="M569.183 1584.54C614.325 1612.48 735.114 1641.58 857.134 1534.45C1009.66 1400.55 1011.61 1202.58 1135.61 1051.96C1227.12 940.78 1503.33 719.724 1726.6 757.784" stroke="#FBD414" stroke-width="3"/>
<path opacity="0.421053" d="M506.135 1527.16C548.109 1559.66 665.194 1601.23 797.743 1507.44C963.43 1390.21 986.068 1193.54 1125.12 1056.7C1227.76 955.695 1525.56 764.722 1743.63 825.912" stroke="#FBD414" stroke-width="3"/>
<path opacity="0.473684" d="M447.729 1464.97C486.075 1501.69 598.175 1555.26 739.801 1475.85C916.834 1376.58 959.906 1183.35 1112.5 1061.79C1225.13 972.07 1541.27 813.272 1751.75 896.921" stroke="#FBD414" stroke-width="3"/>
<path opacity="0.526316" d="M400.602 1401.37C434.901 1441.89 540.786 1506.89 689.938 1442.71C876.377 1362.49 939.411 1174.83 1103.88 1069.88C1225.27 992.429 1556.27 867.546 1756.86 972.738" stroke="#FBD414" stroke-width="3"/>
<path opacity="0.578947" d="M358.784 1334.45C388.659 1378.33 487.17 1454.05 642.213 1405.81C836.017 1345.52 918.322 1165.47 1092.86 1078.29C1221.68 1013.95 1563.92 924.351 1752.41 1049.93" stroke="#FBD414" stroke-width="3"/>
<path opacity="0.631579" d="M324.579 1265.89C349.704 1312.66 439.761 1398.25 598.996 1366.49C798.04 1326.78 898.715 1156.32 1081.41 1087.87C1216.25 1037.34 1565.98 984.008 1740.31 1128.61" stroke="#FBD414" stroke-width="3"/>
<path opacity="0.684211" d="M298.116 1196.49C318.214 1245.63 398.83 1340.16 560.514 1325.22C762.618 1306.54 880.559 1147.53 1069.41 1098.55C1208.79 1062.4 1562.18 1045.91 1720.44 1207.94" stroke="#FBD414" stroke-width="3"/>
<path opacity="0.736842" d="M279.437 1127.06C294.289 1178.03 364.582 1280.48 526.942 1282.52C729.891 1285.06 863.807 1139.26 1056.74 1110.28C1199.14 1088.9 1552.32 1109.44 1692.78 1287.13" stroke="#FBD414" stroke-width="3"/>
<path opacity="0.789474" d="M268.507 1058.43C277.949 1110.67 337.149 1219.9 498.406 1238.9C699.978 1262.65 848.401 1131.64 1043.31 1122.99C1187.16 1116.61 1536.26 1173.96 1657.37 1365.35" stroke="#FBD414" stroke-width="3"/>
<path opacity="0.842105" d="M265.197 991.386C269.127 1044.33 316.584 1159.15 474.972 1194.9C672.958 1239.59 834.262 1124.81 1029 1136.59C1172.74 1145.27 1513.93 1238.8 1614.37 1441.8" stroke="#FBD414" stroke-width="3"/>
<path opacity="0.894737" d="M269.301 926.728C267.675 979.792 302.87 1098.95 456.654 1151.06C648.884 1216.19 821.301 1118.91 1013.75 1150.97C1155.78 1174.64 1485.33 1303.31 1564 1515.7" stroke="#FBD414" stroke-width="3"/>
<path opacity="0.947368" d="M280.528 865.214C273.365 917.817 295.912 1040 443.406 1107.9C627.774 1192.77 809.416 1114.04 997.454 1166.04C1136.24 1204.43 1450.53 1366.85 1506.57 1586.3" stroke="#FBD414" stroke-width="3"/>
<path d="M298.511 807.572C285.888 859.138 295.54 983.007 435.129 1065.95C609.615 1169.63 798.492 1110.32 980.064 1181.69C1114.08 1234.37 1409.67 1428.76 1442.47 1652.86" stroke="#FBD414" stroke-width="3"/>
</g>
</svg>
