<svg width="97" height="101" viewBox="0 0 97 101" fill="none" xmlns="http://www.w3.org/2000/svg">
<path d="M48.473 0.106445V9.69332H67.6467L62.8533 4.89988L67.6467 0.106445H48.473ZM48.473 14.4868L82.027 48.0408V57.6277C82.027 57.6277 83.1879 62.4211 89.2172 62.4211C95.2464 62.4211 96.4073 57.6277 96.4073 57.6277V48.0408L48.473 14.4868ZM48.473 14.4868L53.2664 48.0408V57.6277C53.2664 57.6277 55.6444 62.4211 62.8533 62.4211C70.0622 62.4211 72.4402 57.6277 72.4402 57.6277V48.0408L48.473 14.4868ZM48.473 14.4868L24.5058 48.0408V57.6277C24.5058 57.6277 26.8838 62.4211 34.0926 62.4211C41.3015 62.4211 43.6795 57.6277 43.6795 57.6277V48.0408L48.473 14.4868ZM48.473 14.4868L0.538574 48.0408V57.6277C0.538574 57.6277 1.69949 62.4211 7.72873 62.4211C13.758 62.4211 14.9189 57.6277 14.9189 57.6277V48.0408L48.473 14.4868ZM19.7123 62.4211C19.7123 62.4211 14.9563 67.2146 7.72873 67.2146C6.69889 67.2146 5.76267 67.0835 4.88263 66.915L0.538574 100.769H34.0926L38.8861 81.5949H58.0598L62.8533 100.769H96.4073L92.0633 66.915C91.1832 67.0835 90.247 67.2146 89.2172 67.2146C80.8848 67.2146 77.2336 62.4211 77.2336 62.4211C77.2336 62.4211 71.7286 67.2146 62.8533 67.2146C55.195 67.2146 48.473 62.4211 48.473 62.4211C48.473 62.4211 41.7135 67.2146 34.0926 67.2146C25.3484 67.2146 19.7123 62.4211 19.7123 62.4211Z" fill="#FBD414"/>
</svg>
