<svg width="67" height="67" viewBox="0 0 67 67" fill="none" xmlns="http://www.w3.org/2000/svg">
<circle cx="33.4931" cy="33.4841" r="32.3168" stroke="#FBD414" stroke-width="2" stroke-linecap="round" stroke-dasharray="4 4"/>
<path d="M33.4932 18.512L26.4076 25.0664C26.0738 25.3661 25.9251 25.8241 26.0226 26.2652C26.1201 26.7038 26.4466 27.0571 26.8778 27.1886C27.3091 27.3202 27.7769 27.2106 28.1034 26.8987L32.2456 23.0659V47.1905C32.2383 47.6413 32.4747 48.058 32.8645 48.2846C33.2519 48.5136 33.7344 48.5136 34.1218 48.2846C34.5117 48.058 34.748 47.6413 34.7407 47.1905V23.0659L38.8829 26.8987C39.2094 27.2106 39.6772 27.3202 40.1085 27.1886C40.5398 27.0571 40.8663 26.7038 40.9637 26.2652C41.0612 25.8241 40.9126 25.3661 40.5787 25.0664L33.4932 18.512Z" fill="#FBD414"/>
</svg>
