<svg width="97" height="75" viewBox="0 0 97 75" fill="none" xmlns="http://www.w3.org/2000/svg">
<path d="M8.33495 0.106445C6.93916 0.124746 5.60377 0.678728 4.60491 1.65384C3.60606 2.62896 3.02011 3.95064 2.96825 5.34559C2.91638 6.74054 3.40255 8.10207 4.32624 9.14867C5.24993 10.1953 6.54049 10.8469 7.93107 10.9688C7.13322 11.0682 6.40011 11.4585 5.87216 12.0649C5.34421 12.6713 5.05854 13.4512 5.06987 14.2551V67.5848H3.98151C3.54885 67.5787 3.11928 67.6587 2.71778 67.82C2.31628 67.9813 1.95085 68.2209 1.64272 68.5247C1.3346 68.8285 1.08992 69.1905 0.922923 69.5896C0.755922 69.9888 0.669922 70.4172 0.669922 70.8499C0.669922 71.2826 0.755922 71.711 0.922923 72.1102C1.08992 72.5094 1.3346 72.8714 1.64272 73.1752C1.95085 73.479 2.31628 73.7185 2.71778 73.8798C3.11928 74.0412 3.54885 74.1211 3.98151 74.115H7.79927C8.14979 74.1726 8.50736 74.1726 8.85788 74.115H12.6884C13.1211 74.1211 13.5506 74.0412 13.9521 73.8798C14.3536 73.7185 14.7191 73.479 15.0272 73.1752C15.3353 72.8714 15.58 72.5094 15.747 72.1102C15.914 71.711 16 71.2826 16 70.8499C16 70.4172 15.914 69.9888 15.747 69.5896C15.58 69.1905 15.3353 68.8285 15.0272 68.5247C14.7191 68.2209 14.3536 67.9813 13.9521 67.82C13.5506 67.6587 13.1211 67.5787 12.6884 67.5848H11.6V14.2551C11.6101 13.4506 11.3227 12.6707 10.7931 12.065C10.2635 11.4593 9.52898 11.0705 8.73033 10.9731C10.1292 10.8625 11.4314 10.2159 12.3648 9.16817C13.2983 8.12044 13.791 6.75261 13.74 5.35028C13.6889 3.94795 13.0982 2.61954 12.091 1.64242C11.0839 0.665299 9.73818 0.115007 8.33495 0.106445V0.106445ZM88.8737 0.106445C87.4779 0.124746 86.1425 0.678728 85.1436 1.65384C84.1448 2.62896 83.5588 3.95064 83.507 5.34559C83.4551 6.74054 83.9413 8.10207 84.865 9.14867C85.7886 10.1953 87.0792 10.8469 88.4698 10.9688C87.6719 11.0682 86.9388 11.4585 86.4109 12.0649C85.8829 12.6713 85.5973 13.4512 85.6086 14.2551V67.5848H84.5202C84.0876 67.5787 83.658 67.6587 83.2565 67.82C82.855 67.9813 82.4896 68.2209 82.1814 68.5247C81.8733 68.8285 81.6286 69.1905 81.4616 69.5896C81.2946 69.9888 81.2086 70.4172 81.2086 70.8499C81.2086 71.2826 81.2946 71.711 81.4616 72.1102C81.6286 72.5094 81.8733 72.8714 82.1814 73.1752C82.4896 73.479 82.855 73.7185 83.2565 73.8798C83.658 74.0412 84.0876 74.1211 84.5202 74.115H88.338C88.6885 74.1726 89.0461 74.1726 89.3966 74.115H93.2271C93.6598 74.1211 94.0893 74.0412 94.4908 73.8798C94.8923 73.7185 95.2578 73.479 95.5659 73.1752C95.874 72.8714 96.1187 72.5094 96.2857 72.1102C96.4527 71.711 96.5387 71.2826 96.5387 70.8499C96.5387 70.4172 96.4527 69.9888 96.2857 69.5896C96.1187 69.1905 95.874 68.8285 95.5659 68.5247C95.2578 68.2209 94.8923 67.9813 94.4908 67.82C94.0893 67.6587 93.6598 67.5787 93.2271 67.5848H92.1387V14.2551C92.1488 13.4506 91.8614 12.6707 91.3319 12.065C90.8023 11.4593 90.0677 11.0705 89.269 10.9731C90.6679 10.8625 91.9701 10.2159 92.9036 9.16817C93.837 8.12044 94.3297 6.75261 94.2787 5.35028C94.2276 3.94795 93.6369 2.61954 92.6297 1.64242C91.6226 0.665298 90.2769 0.115007 88.8737 0.106445V0.106445ZM78.1601 13.1328C77.4131 13.1052 76.6793 13.3348 76.0812 13.7832C76.0812 13.7832 64.814 21.8737 48.6043 21.8737C32.3946 21.8737 21.1274 13.7832 21.1274 13.7832C20.5994 13.3908 19.9652 13.1671 19.3078 13.1413C18.6028 13.1138 17.9079 13.3154 17.327 13.7159C16.7462 14.1164 16.3106 14.6942 16.0857 15.363C15.8607 16.0317 15.8583 16.7553 16.079 17.4254C16.2996 18.0956 16.7314 18.6762 17.3097 19.0805C17.3097 19.0805 30.2042 28.4038 48.6043 28.4038C67.0045 28.4038 79.8989 19.0805 79.8989 19.0805C80.4626 18.6901 80.8891 18.1323 81.118 17.486C81.3468 16.8397 81.3665 16.1377 81.1741 15.4797C80.9817 14.8216 80.587 14.2408 80.0461 13.8195C79.5051 13.3983 78.8453 13.158 78.1601 13.1328V13.1328ZM36.6323 39.2874C36.0089 39.2877 35.3986 39.4664 34.8736 39.8024C34.3485 40.1384 33.9305 40.6176 33.6691 41.1836L20.6088 69.481C20.3791 69.9784 20.2784 70.5256 20.3157 71.0722C20.3531 71.6188 20.5273 72.1472 20.8225 72.6087C21.1176 73.0703 21.5242 73.4502 22.0047 73.7134C22.4851 73.9767 23.0241 74.1147 23.572 74.115H73.6366C74.1929 74.1148 74.7399 73.9725 75.2258 73.7016C75.7116 73.4307 76.1202 73.0401 76.4128 72.567C76.7053 72.0939 76.8722 71.5538 76.8975 70.9981C76.9228 70.4424 76.8057 69.8894 76.5573 69.3917L62.4086 41.0943C62.1377 40.5516 61.7209 40.095 61.205 39.7759C60.6891 39.4567 60.0945 39.2876 59.4879 39.2874H36.6323Z" fill="#FBD414"/>
</svg>
