<svg width="97" height="96" viewBox="0 0 97 96" fill="none" xmlns="http://www.w3.org/2000/svg">
<path d="M48.4459 0.106698C47.1221 0.110847 45.7991 0.168921 44.4993 0.279539L45.1259 7.62525C47.3346 7.44089 49.6146 7.43403 51.8307 7.60365L52.3996 0.250732C51.0925 0.149332 49.7696 0.10255 48.4459 0.106698ZM60.2134 1.52543L58.4346 8.6767C60.5953 9.21135 62.7293 9.94137 64.7721 10.83L67.7176 4.07482C65.2987 3.02027 62.7761 2.15964 60.2134 1.52543ZM36.6927 1.59745C34.1411 2.25009 31.6216 3.12075 29.2102 4.19005L32.2061 10.9308C34.2414 10.0274 36.3686 9.29812 38.522 8.74872L36.6927 1.59745ZM74.6816 7.8197L70.6703 14.0059C72.536 15.2191 74.3225 16.5956 75.9707 18.1037L80.947 12.6592C78.9965 10.8783 76.8866 9.25404 74.6816 7.8197ZM22.2678 7.97814C20.0738 9.42354 17.9813 11.0617 16.0455 12.8537L21.0579 18.2693C22.6987 16.7539 24.4711 15.3634 26.3295 14.1356L22.2678 7.97814ZM48.6043 14.8557C30.3202 14.8557 15.419 29.757 15.419 48.0411C15.419 66.3252 30.3202 81.2264 48.6043 81.2264C66.8884 81.2264 81.7896 66.3252 81.7896 48.0411C81.7896 29.757 66.8884 14.8557 48.6043 14.8557ZM86.3267 18.4566L80.5221 23.0152C81.9012 24.7704 83.1401 26.6495 84.2094 28.6037L90.6837 25.0605C89.419 22.7523 87.9528 20.5325 86.3267 18.4566ZM10.7019 18.687C9.08684 20.7703 7.63804 23.0077 6.38806 25.327L12.8768 28.8198C13.935 26.8582 15.1637 24.9685 16.528 23.2097L10.7019 18.687ZM48.6043 22.2303C62.9029 22.2303 74.4151 33.7425 74.4151 48.0411C74.4151 62.3397 62.9029 73.8519 48.6043 73.8519C34.3057 73.8519 22.7935 62.3397 22.7935 48.0411C22.7935 33.7425 34.3057 22.2303 48.6043 22.2303ZM93.8885 32.291L86.9244 34.7108C87.6545 36.8162 88.2156 38.9984 88.588 41.1923L95.8617 39.9608C95.4229 37.365 94.755 34.7836 93.8885 32.291ZM3.21932 32.5863C2.37125 35.0789 1.7277 37.6601 1.30367 40.2633L8.57737 41.4515C8.93503 39.2503 9.48593 37.0611 10.2049 34.9556L3.21932 32.5863ZM48.6043 33.292C43.9952 33.292 40.0691 35.1532 37.5497 37.9875C35.0303 40.8219 33.8553 44.4562 33.8553 48.0411C33.8553 51.6259 35.0303 55.2603 37.5497 58.0946C40.0691 60.929 43.9952 62.7901 48.6043 62.7901C53.2134 62.7901 57.1395 60.929 59.6589 58.0946C62.1783 55.2603 63.3533 51.6259 63.3533 48.0411C63.3533 44.4562 62.1783 40.8219 59.6589 37.9875C57.1395 35.1532 53.2134 33.292 48.6043 33.292ZM48.6043 40.6666C51.3697 40.6666 52.9745 41.5708 54.1424 42.8847C55.3103 44.1985 55.9788 46.095 55.9788 48.0411C55.9788 49.9871 55.3103 51.8836 54.1424 53.1975C52.9745 54.5113 51.3697 55.4156 48.6043 55.4156C45.8389 55.4156 44.2341 54.5113 43.0662 53.1975C41.8984 51.8836 41.2298 49.9871 41.2298 48.0411C41.2298 46.095 41.8984 44.1985 43.0662 42.8847C44.2341 41.5708 45.8389 40.6666 48.6043 40.6666ZM96.5387 47.8538L89.1642 48.0411C89.1642 50.2829 88.9782 52.5305 88.6168 54.717L95.8905 55.9269C96.3183 53.3422 96.5387 50.6885 96.5387 48.0411V47.8538ZM8.04444 48.1275L0.669922 48.1419C0.673609 50.7894 0.89738 53.4358 1.33248 56.0205L8.60617 54.8035C8.24113 52.6169 8.04813 50.3694 8.04444 48.1275ZM86.9821 61.2058C86.2594 63.3149 85.3542 65.3763 84.2886 67.3416L90.7773 70.8488C92.031 68.5295 93.105 66.0893 93.9605 63.5967L86.9821 61.2058ZM10.2554 61.285L3.29133 63.6975C4.15046 66.1828 5.22432 68.6161 6.48168 70.928L12.956 67.4064C11.8904 65.4485 10.9817 63.3904 10.2554 61.285ZM80.623 72.9445C79.2513 74.7033 77.7231 76.3587 76.0859 77.8704L81.0911 83.2933C83.0232 81.5087 84.8232 79.5503 86.4419 77.4744L80.623 72.9445ZM16.636 73.0021L10.8243 77.5464C12.443 79.6186 14.25 81.57 16.1895 83.3509L21.1803 77.9209C19.5395 76.4128 18.0077 74.7572 16.636 73.0021ZM70.8071 81.9898C68.9376 83.214 66.955 84.2878 64.9233 85.1801L67.8976 91.9353C70.3017 90.8771 72.6386 89.6071 74.8472 88.1616L70.8071 81.9898ZM26.4663 82.033L22.4334 88.2121C24.6494 89.6575 26.9968 90.9168 29.4046 91.9713L32.3573 85.2162C30.3219 84.3238 28.3395 83.2572 26.4663 82.033ZM58.6074 87.3623C56.4541 87.9043 54.2271 88.2798 51.9963 88.4641L52.6084 95.8098C55.2448 95.5923 57.8673 95.1516 60.4079 94.5063L58.6074 87.3623ZM38.6876 87.3839L36.8944 94.5351C39.4496 95.1804 42.072 95.6069 44.701 95.817L45.2915 88.4713C43.0681 88.2906 40.8483 87.9259 38.6876 87.3839Z" fill="#FBD414"/>
</svg>
