<svg width="97" height="93" viewBox="0 0 97 93" fill="none" xmlns="http://www.w3.org/2000/svg">
<path d="M53.9227 0.106445C48.8921 0.106445 44.8098 4.18499 44.8098 9.21934C44.8098 14.2537 48.8921 18.325 53.9227 18.325C58.9534 18.325 63.0284 14.25 63.0284 9.21934C63.0284 4.18868 58.9571 0.106445 53.9227 0.106445ZM15.3693 14.8411C14.4471 14.8185 13.55 15.1425 12.8551 15.7491C12.1601 16.3557 11.7179 17.2008 11.6158 18.1176C11.5136 19.0344 11.7589 19.9561 12.3032 20.7009C12.8476 21.4456 13.6514 21.9591 14.5559 22.1401L38.4178 27.2508L38.1659 27.7618C38.1625 27.7698 38.1549 27.7826 38.1515 27.7906L30.9965 42.1294C30.9168 42.2944 30.8217 42.4486 30.7518 42.6189L30.7446 42.6333V42.6405C30.3126 43.7008 30.068 44.858 30.068 46.074C30.068 47.8952 30.6167 49.5748 31.5364 50.9976V51.0335L39.1808 62.5146L33.1776 69.2233C25.5782 71.7092 20.0571 74.6614 18.2342 77.4581C18.4921 77.4728 18.7573 77.5012 19.0116 77.5012C22.8113 77.5012 27.4103 75.6679 28.8587 74.9603C31.9508 73.4566 35.6212 73.445 38.6986 74.9819C40.1027 75.6637 44.6956 77.5012 48.4953 77.5012C52.295 77.5012 56.894 75.6679 58.3424 74.9603C61.4345 73.4566 65.1049 73.445 68.1823 74.9819C69.5865 75.6637 74.1793 77.5012 77.979 77.5012C78.4508 77.5012 78.9322 77.4737 79.4187 77.4221C85.6471 74.7354 89.338 71.7505 89.021 69.1154C88.6134 65.7144 81.5969 63.7329 71.4215 63.5152L66.5339 53.7401C66.2779 53.2272 65.9057 52.781 65.447 52.4372L51.4609 41.9494L56.874 31.2098L66.1524 33.1965C66.3962 33.2479 66.6447 33.2744 66.8938 33.2756L81.7797 33.398C82.2673 33.4076 82.7519 33.3203 83.2055 33.1412C83.6591 32.9621 84.0727 32.6947 84.4222 32.3546C84.7718 32.0146 85.0503 31.6085 85.2418 31.16C85.4333 30.7114 85.5338 30.2294 85.5376 29.7417C85.5414 29.254 85.4484 28.7704 85.264 28.319C85.0796 27.8675 84.8074 27.4571 84.4632 27.1116C84.119 26.7661 83.7097 26.4923 83.2589 26.3062C82.8081 26.12 82.3249 26.0251 81.8372 26.0271L67.3257 25.9047L16.0963 14.9275C15.8574 14.8746 15.6139 14.8457 15.3693 14.8411V14.8411ZM47.7179 53.5457L58.1984 57.4039L62.9492 63.7455C59.5006 63.9622 55.9101 64.2868 52.1376 64.8468C50.3973 65.106 48.7211 65.4115 47.0557 65.725L47.4156 65.3651C47.7665 65.0144 48.043 64.5965 48.2285 64.1364C48.4141 63.6763 48.5048 63.1834 48.4953 62.6874L48.5673 62.6514L47.7179 53.5457ZM4.14013 81.1651C3.31294 81.184 2.51618 81.4807 1.87808 82.0074C1.23997 82.5342 0.797653 83.2602 0.622302 84.0688C0.446951 84.8775 0.54877 85.7216 0.911372 86.4653C1.27397 87.209 1.87627 87.8091 2.62131 88.1689C2.62131 88.1689 10.4121 92.2431 19.0116 92.2431C26.1856 92.2431 31.7589 89.7857 33.7534 88.8456C35.748 89.7857 41.3213 92.2431 48.4953 92.2431C55.6693 92.2431 61.2426 89.7857 63.2372 88.8456C65.2317 89.7857 70.805 92.2431 77.979 92.2431C86.5784 92.2431 94.3693 88.1689 94.3693 88.1689C94.8023 87.9525 95.1884 87.6529 95.5057 87.2873C95.8229 86.9216 96.065 86.497 96.2181 86.0378C96.3712 85.5785 96.4324 85.0936 96.3981 84.6108C96.3638 84.1279 96.2347 83.6565 96.0182 83.2235C95.8017 82.7905 95.5021 82.4044 95.1363 82.0873C94.7706 81.7701 94.346 81.5281 93.8867 81.375C93.4275 81.222 92.9426 81.1609 92.4597 81.1953C91.9768 81.2297 91.5055 81.3588 91.0725 81.5754C91.0725 81.5754 84.1215 84.8722 77.979 84.8722C71.8366 84.8722 64.8855 81.5754 64.8855 81.5754C64.3737 81.3195 63.8094 81.1863 63.2372 81.1863C62.6649 81.1863 62.1006 81.3195 61.5888 81.5754C61.5888 81.5754 54.6377 84.8722 48.4953 84.8722C42.3528 84.8722 35.4018 81.5754 35.4018 81.5754C34.89 81.3195 34.3256 81.1863 33.7534 81.1863C33.1812 81.1863 32.6168 81.3195 32.105 81.5754C32.105 81.5754 25.154 84.8722 19.0116 84.8722C12.8691 84.8722 5.91808 81.5754 5.91808 81.5754C5.36918 81.2918 4.7578 81.1507 4.14013 81.1651V81.1651Z" fill="#FBD414"/>
</svg>
