<svg width="186" height="45" viewBox="0 0 186 45" fill="none" xmlns="http://www.w3.org/2000/svg">
<path d="M69.5361 34.0756V11.1761H72.1967V31.6658H82.3003V34.0756H69.5361Z" fill="white"/>
<path d="M111.708 34.0756V11.1761H114.369V34.0756H111.708Z" fill="white"/>
<path d="M130.786 34.0756L123.017 13.7712H122.892C123.039 15.3816 123.11 17.2913 123.11 19.506V34.0756H120.65V11.1761H124.66L131.913 30.066H132.038L139.356 11.1761H143.333V34.0756H140.672V19.3207C140.672 17.6287 140.743 15.7894 140.89 13.8036H140.765L132.931 34.0756H130.787H130.786Z" fill="white"/>
<path d="M164.126 17.8464C164.126 20.1639 163.337 21.9482 161.754 23.1944C160.171 24.4405 157.908 25.066 154.964 25.066H152.271V34.0756H149.61V11.1761H155.546C161.264 11.1761 164.126 13.4015 164.126 17.8464ZM152.271 22.7809H154.67C157.031 22.7809 158.74 22.3998 159.79 21.6383C160.845 20.8768 161.373 19.6525 161.373 17.971C161.373 16.4586 160.878 15.3266 159.888 14.587C158.898 13.8473 157.353 13.4775 155.252 13.4775L152.277 13.4768V22.7802H152.272L152.271 22.7809Z" fill="white"/>
<path d="M65.7155 22.6455C65.7155 34.1833 56.3664 43.5268 44.8166 43.5268C37.0038 43.5268 30.1878 39.2375 26.6107 32.8843C24.8969 29.8645 23.9297 26.3649 23.9297 22.6455C23.9297 17.0221 26.1487 11.9263 29.7666 8.16465C33.5634 4.2079 38.9086 1.75232 44.8166 1.75232C56.3664 1.74598 65.7162 11.1134 65.7162 22.6455H65.7155Z" fill="url(#paint0_linear_423:22748)"/>
<path d="M44.802 44.2607C36.9956 44.2607 29.7703 40.037 25.9495 33.2393C24.1342 30.0355 23.1733 26.3697 23.1733 22.6327C23.1733 17.0149 25.3204 11.6881 29.218 7.63622C33.3234 3.35332 38.8581 0.992065 44.802 0.992065C56.7378 0.992065 66.4426 10.7033 66.4426 22.6327C66.4426 34.5621 56.7314 44.2614 44.802 44.2614V44.2607ZM44.802 2.48051C39.2673 2.48051 34.118 4.6755 30.2923 8.66748C26.6617 12.446 24.6625 17.4059 24.6625 22.6377C24.6625 26.114 25.5522 29.5305 27.2428 32.5144C30.8023 38.8444 37.5295 42.7772 44.802 42.7772C55.9129 42.7772 64.9535 33.7422 64.9535 22.6377C64.9535 11.5211 55.9129 2.47982 44.802 2.47982V2.48051Z" fill="white"/>
<path d="M49.3233 26.4661C50.8861 26.4661 52.153 25.1992 52.153 23.6364C52.153 22.0736 50.8861 20.8068 49.3233 20.8068C47.7605 20.8068 46.4937 22.0736 46.4937 23.6364C46.4937 25.1992 47.7605 26.4661 49.3233 26.4661Z" fill="white"/>
<path d="M14.6734 34.3504H0.0600586V31.7172H14.6734C16.6155 31.7172 18.199 30.1337 18.199 28.1916V26.7334C18.199 24.7913 16.6162 23.2078 14.6734 23.2078H9.12953C5.73491 23.2078 2.97637 20.4493 2.97637 17.0547C2.97637 13.6601 5.73491 10.9015 9.12953 10.9015H21.9099V13.5346H9.12953C7.18743 13.5346 5.6039 15.1175 5.6039 17.0603C5.6039 19.0024 7.18673 20.586 9.12953 20.586H14.6734C18.0687 20.586 20.8265 23.3501 20.8265 26.7391V28.1973C20.8265 31.5919 18.068 34.3504 14.6734 34.3504Z" fill="white"/>
<path d="M100.387 34.3504H85.7734V31.7172H100.387C102.329 31.7172 103.912 30.1337 103.912 28.1916V26.7334C103.912 24.7913 102.329 23.2078 100.387 23.2078H94.8429C91.4483 23.2078 88.6897 20.4493 88.6897 17.0547C88.6897 13.6601 91.4532 10.9015 94.8429 10.9015H107.623V13.5346H94.8429C92.9008 13.5346 91.3172 15.1175 91.3172 17.0603C91.3172 19.0024 92.9008 20.586 94.8429 20.586H100.387C103.781 20.586 106.54 23.3501 106.54 26.7391V28.1973C106.54 31.5919 103.776 34.3504 100.387 34.3504Z" fill="white"/>
<path d="M178.534 34.3504H163.921V31.7172H178.534C180.476 31.7172 182.06 30.1337 182.06 28.1916V26.7334C182.06 24.7913 180.476 23.2078 178.534 23.2078H172.99C169.595 23.2078 166.837 20.4493 166.837 17.0547C166.837 13.6601 169.596 10.9015 172.99 10.9015H185.77V13.5346H172.99C171.048 13.5346 169.465 15.1175 169.465 17.0603C169.465 19.0024 171.048 20.586 172.99 20.586H178.534C181.929 20.586 184.687 23.3501 184.687 26.7391V28.1973C184.693 31.5919 181.929 34.3504 178.534 34.3504Z" fill="white"/>
<defs>
<linearGradient id="paint0_linear_423:22748" x1="23.9297" y1="22.6396" x2="65.2708" y2="22.6396" gradientUnits="userSpaceOnUse">
<stop offset="0.19618" stop-color="#FFFF00"/>
<stop offset="0.529514" stop-color="#FF0000"/>
<stop offset="0.925347" stop-color="#0000FF"/>
</linearGradient>
</defs>
</svg>
